<svg id="Capa_1" data-name="Capa 1" xmlns="http://www.w3.org/2000/svg" viewBox="0 0 170.31 96.51"><defs><style>.cls-1{fill:#25a2b5;}.cls-2{fill:#33b9cb;}</style></defs><path class="cls-1" d="M90.29,96.52c-1.51-32.46-3-63.78-4.47-96,21.79,0,42.58-1.46,63.05.52,13,1.27,20.33,12.9,20.9,25.59,1,23.07.3,46.22.3,69.84h-33.9c-.7-4.91-.7-10.21-2.38-14.91-1.09-3-4.64-5.21-7.08-7.76-2.32,2.63-5.71,4.92-6.72,8-1.46,4.47-1.2,9.5-1.72,14.74Z"/><path class="cls-1" d="M60.23,38.58,44.9,35.68V.06H77.08c6.35,41.75.45,72.63-36.3,75.92,4-7.27,7.07-12.45,9.82-17.77C53.75,52.16,56.65,45.9,60.23,38.58Z"/><path class="cls-2" d="M19.45,38.58,4.12,35.68V.06H36.29C42.64,41.81,36.74,72.69,0,76c4-7.27,7.07-12.45,9.82-17.77C13,52.16,15.87,45.9,19.45,38.58Z"/></svg>